<svg xmlns="http://www.w3.org/2000/svg" width="57.176" height="60.001" viewBox="0 0 57.176 60.001">
  <g id="low-price" transform="translate(-3.412 -2)">
    <path id="Path_202" data-name="Path 202" d="M41.649,5.866a4.448,4.448,0,1,0,6.29,0A4.419,4.419,0,0,0,41.649,5.866ZM46.525,7.28a2.452,2.452,0,0,1,0,3.462,2.506,2.506,0,0,1-3.462,0A2.448,2.448,0,0,1,46.525,7.28Z" fill="#0b0d39"/>
    <path id="Path_203" data-name="Path 203" d="M56.14,24.8a4.445,4.445,0,1,0-3.145-1.3,4.433,4.433,0,0,0,3.145,1.3Zm-1.731-6.176a2.448,2.448,0,1,1,0,3.462,2.433,2.433,0,0,1,0-3.462Z" fill="#0b0d39"/>
    <path id="Path_204" data-name="Path 204" d="M43.25,23.314,59.1,7.467a1,1,0,0,0-1.414-1.414L41.836,21.9a1,1,0,1,0,1.414,1.414Z" fill="#0b0d39"/>
    <path id="Path_205" data-name="Path 205" d="M32.231,9.17v2.353a1,1,0,0,0,2,0V9.17a1,1,0,0,0-2,0Z" fill="#0b0d39"/>
    <path id="Path_206" data-name="Path 206" d="M3.487,42.292a1,1,0,0,0,.22,1.091L22.174,61.711a1,1,0,0,0,1.41,0L42.051,43.383a1,1,0,0,0-.7-1.71H34.231V17.018a1,1,0,0,0-2,0V42.672a1,1,0,0,0,1,1h5.688L22.879,59.591,6.839,43.672h5.688a1,1,0,0,0,1-1V9.17a1,1,0,0,0-2,0v32.5H4.412a1,1,0,0,0-.925.619Z" fill="#0b0d39"/>
    <path id="Path_207" data-name="Path 207" d="M5.612,3V17.135a1,1,0,0,0,2,0V3a1,1,0,0,0-2,0Z" fill="#0b0d39"/>
    <path id="Path_208" data-name="Path 208" d="M25.918,13.88V28.016a1,1,0,0,0,2,0V13.88a1,1,0,1,0-2,0Z" fill="#0b0d39"/>
  </g>
</svg>
