<svg xmlns="http://www.w3.org/2000/svg" width="60.007" height="59.998" viewBox="0 0 60.007 59.998">
  <g id="Page-1" transform="translate(0.005 -0.001)">
    <g id="_017---Self-Star-Rating" data-name="017---Self-Star-Rating" transform="translate(-1)">
      <path id="Shape" d="M36.243,33.13a1,1,0,1,0,.658,1.889,18.005,18.005,0,1,0-11.792,0,1,1,0,1,0,.657-1.89A15.96,15.96,0,0,1,21,30.479V29.39a7.526,7.526,0,0,1,4.829-7.036,8.945,8.945,0,0,0,10.342,0A7.526,7.526,0,0,1,41,29.39v1.093a15.961,15.961,0,0,1-4.757,2.647ZM24,15a7,7,0,1,1,7,7A7,7,0,0,1,24,15Zm13.8,5.873a9,9,0,1,0-13.608,0,9.527,9.527,0,0,0-5.16,7.727,16,16,0,1,1,23.936,0A9.523,9.523,0,0,0,37.8,20.873Z" fill="#0b0d39"/>
      <path id="Shape-2" data-name="Shape" d="M22.4,59.611a1.985,1.985,0,0,0,2.1.161l6.507-3.381,6.506,3.382a2,2,0,0,0,2.893-2.117L39.17,50.524l5.23-5.041a2,2,0,0,0-1.1-3.419l-7.26-1.043L32.8,34.508a2,2,0,0,0-3.582,0L25.96,41.021l-7.244,1.042a2,2,0,0,0-1.1,3.42l5.232,5.041-1.237,7.132a1.99,1.99,0,0,0,.789,1.955ZM19,44.043l7.762-1.117a1,1,0,0,0,.752-.542L31.006,35.4l3.477,6.982a1,1,0,0,0,.753.544l7.778,1.117L37.4,49.452a1,1,0,0,0-.291.891L38.436,58l-6.967-3.621a1,1,0,0,0-.922,0L23.579,58l1.327-7.655a1,1,0,0,0-.291-.891Z" fill="#0b0d39"/>
      <path id="Shape-3" data-name="Shape" d="M5.7,44.222l-.977,5.649a1.807,1.807,0,0,0,2.616,1.923L12.5,49.108,17.658,51.8a1,1,0,0,0,.924-1.774l-5.62-2.93a1,1,0,0,0-.924,0L6.761,49.845l1-5.8a1,1,0,0,0-.291-.891l-4.247-4.1L9.1,38.21a1,1,0,0,0,.752-.543L12.5,32.373l2.638,5.293a1,1,0,0,0,.754.544l6.279.9a1,1,0,1,0,.283-1.98l-5.76-.825-2.577-5.172a1.8,1.8,0,0,0-1.621-1H12.49a1.779,1.779,0,0,0-1.6.994L8.3,36.305l-5.743.824a1.8,1.8,0,0,0-1,3.091Z" fill="#0b0d39"/>
      <path id="Shape-4" data-name="Shape" d="M60.91,38.356a1.782,1.782,0,0,0-1.46-1.226L53.7,36.3l-2.584-5.177a1.783,1.783,0,0,0-1.6-1H49.51a1.8,1.8,0,0,0-1.622,1L45.312,36.3l-5.761.825a1,1,0,1,0,.283,1.98l6.28-.9a1,1,0,0,0,.754-.544L49.5,32.373l2.643,5.294a1,1,0,0,0,.752.543l5.874.843-4.247,4.1a1,1,0,0,0-.291.891l1.005,5.8-5.277-2.752a1,1,0,0,0-.924,0l-5.62,2.93a1,1,0,1,0,.924,1.774L49.5,49.108,54.66,51.8a1.808,1.808,0,0,0,2.614-1.919L56.3,44.222l4.146-4a1.8,1.8,0,0,0,.464-1.866Z" fill="#0b0d39"/>
      <path id="Shape-5" data-name="Shape" d="M25.5,47.139a1.019,1.019,0,0,0,.144-.011l3.761-.541a1,1,0,0,0,.752-.542l1.74-3.479a1,1,0,1,0-1.79-.9l-1.5,3.011-3.245.467a1,1,0,0,0,.142,1.99Z" fill="#0b0d39"/>
    </g>
  </g>
</svg>
