<svg xmlns="http://www.w3.org/2000/svg" width="65.054" height="56.686" viewBox="0 0 65.054 56.686">
  <path id="Path_215" data-name="Path 215" d="M53.718,49.306h-4.73v-5.04a11.3,11.3,0,0,0-3.06-7.747.972.972,0,0,0-1.418,1.328,9.359,9.359,0,0,1,2.535,6.418v5.04H27.273A11.349,11.349,0,0,0,15.937,60.642v3.476H14.415a2.253,2.253,0,0,0-1.6.664L7.655,69.939V64.751A2.279,2.279,0,0,0,6.544,62.8a9.442,9.442,0,0,1-4.6-8.077V44.266a9.4,9.4,0,0,1,9.393-9.393H37.652a9.34,9.34,0,0,1,3.509.677.972.972,0,1,0,.727-1.8,11.275,11.275,0,0,0-4.236-.818H11.336A11.349,11.349,0,0,0,0,44.266V54.725a11.394,11.394,0,0,0,5.551,9.747.327.327,0,0,1,.161.279v5.657a1.744,1.744,0,0,0,1.08,1.616A1.848,1.848,0,0,0,8.7,71.645l5.489-5.489a.322.322,0,0,1,.229-.095h1.522V71.1a11.267,11.267,0,0,0,.891,4.413.972.972,0,0,0,1.79-.757A9.334,9.334,0,0,1,17.88,71.1V60.642a9.4,9.4,0,0,1,9.393-9.393H53.718a9.4,9.4,0,0,1,9.393,9.393V71.1a9.331,9.331,0,0,1-4.524,8.031A2.272,2.272,0,0,0,57.5,81.064V87.4l-6.243-6.244a2.252,2.252,0,0,0-1.6-.664H27.273a9.367,9.367,0,0,1-6.347-2.468.972.972,0,1,0-1.314,1.432,11.3,11.3,0,0,0,7.66,2.98H49.657a.326.326,0,0,1,.229.095l6.575,6.575a1.773,1.773,0,0,0,1.906.379,1.744,1.744,0,0,0,1.08-1.616V81.064a.317.317,0,0,1,.148-.271A11.26,11.26,0,0,0,65.054,71.1V60.642A11.349,11.349,0,0,0,53.718,49.306Z" transform="translate(0 -32.93)" fill="#0b0d39"/>
</svg>
