<svg xmlns="http://www.w3.org/2000/svg" width="29.432" height="25.411" viewBox="0 0 29.432 25.411">
  <g id="_1_Heart" data-name="1 Heart" transform="translate(-0.08 -64.076)">
    <path id="Path_3028" data-name="Path 3028" d="M14.8,89.487a1.438,1.438,0,0,1-1.017-.423l-.011-.011L2.414,77.7A7.983,7.983,0,1,1,13.7,66.41l1.1,1.1,1.087-1.087A7.983,7.983,0,1,1,27.177,77.711l-4.67,4.67a1.439,1.439,0,1,1-2.033-2.036l4.671-4.669a5.108,5.108,0,0,0-7.224-7.223l-2.1,2.1a1.438,1.438,0,0,1-2.033,0L11.67,68.442a5.108,5.108,0,1,0-7.224,7.222L14.8,86.018l1.1-1.1a1.438,1.438,0,1,1,2.033,2.033l-2.117,2.117a1.438,1.438,0,0,1-1.017.419Z"/>
  </g>
</svg>
