<svg xmlns="http://www.w3.org/2000/svg" width="123.081" height="114.29" viewBox="0 0 123.081 114.29">
  <g id="check2-circle" transform="translate(-1.5 -1.499)">
    <path id="Path_31426" data-name="Path 31426" d="M10.292,58.65A48.351,48.351,0,0,1,82.818,16.769a4.4,4.4,0,1,0,4.4-7.613A57.142,57.142,0,1,0,115.785,58.65a4.4,4.4,0,1,0-8.791,0,48.351,48.351,0,0,1-96.7,0" transform="translate(0 0)" fill="#356dff"/>
    <path id="Path_31427" data-name="Path 31427" d="M99.923,10.012A4.4,4.4,0,1,0,93.7,3.788L35.274,62.222,12.012,38.953a4.4,4.4,0,0,0-6.224,6.224L32.162,71.55a4.4,4.4,0,0,0,6.224,0Z" transform="translate(23.369 7.794)" fill="#356dff"/>
  </g>
</svg>
