<svg id="Layer_2" data-name="Layer 2" xmlns="http://www.w3.org/2000/svg" xmlns:xlink="http://www.w3.org/1999/xlink" width="25.74" height="27.72" viewBox="0 0 25.74 27.72">
  <defs>
    <linearGradient id="linear-gradient" x1="0.5" x2="0.5" y2="1" gradientUnits="objectBoundingBox">
      <stop offset="0" stop-color="#3996bc"/>
      <stop offset="1" stop-color="#fff"/>
    </linearGradient>
  </defs>
  <path id="Path_3005" data-name="Path 3005" d="M7.99,8.98h9.9a.99.99,0,1,0,0-1.98H7.99a.99.99,0,0,0,0,1.98Z" transform="translate(-3.04 -2.05)" fill="url(#linear-gradient)"/>
  <path id="Path_3006" data-name="Path 3006" d="M7.99,12.98h9.9a.99.99,0,1,0,0-1.98H7.99a.99.99,0,1,0,0,1.98Z" transform="translate(-3.04 -2.09)" fill="url(#linear-gradient)"/>
  <path id="Path_3007" data-name="Path 3007" d="M11.95,15H7.99a.99.99,0,0,0,0,1.98h3.96a.99.99,0,1,0,0-1.98Z" transform="translate(-3.04 -2.13)" fill="url(#linear-gradient)"/>
  <path id="Path_3008" data-name="Path 3008" d="M28.74,13.3a2.951,2.951,0,0,0-.869-2.1,3.042,3.042,0,0,0-4.2,0l-.87.87V4.97A2.97,2.97,0,0,0,19.83,2H5.97A2.97,2.97,0,0,0,3,4.97V26.75a2.97,2.97,0,0,0,2.97,2.97H19.83a2.97,2.97,0,0,0,2.97-2.97V20.469L27.87,15.4a2.948,2.948,0,0,0,.87-2.1ZM20.82,26.75a.99.99,0,0,1-.99.99H5.97a.99.99,0,0,1-.99-.99V4.97a.99.99,0,0,1,.99-.99H19.83a.99.99,0,0,1,.99.99v9.08l-6.476,6.475a.99.99,0,0,0-.268.495l-.744,3.545A.99.99,0,0,0,14.3,25.76a1.025,1.025,0,0,0,.2-.021l3.545-.745a.983.983,0,0,0,.495-.269l2.277-2.277ZM26.47,14l-9.115,9.117-1.773.372.372-1.772L25.071,12.6a1.011,1.011,0,0,1,1.4,0,.99.99,0,0,1,0,1.4Z" transform="translate(-3 -2)" fill="url(#linear-gradient)"/>
</svg>
