<svg xmlns="http://www.w3.org/2000/svg" width="18.083" height="18.305" viewBox="0 0 18.083 18.305">
  <g id="Group_47608" data-name="Group 47608" transform="translate(-7437.031 -7241.455)">
    <path id="Path_221" data-name="Path 221" d="M65.848,2.981c2.414,0,2.7.009,3.653.053a4.94,4.94,0,0,1,1.679.315,2.8,2.8,0,0,1,1.04.685A2.841,2.841,0,0,1,72.9,5.087a5.118,5.118,0,0,1,.312,1.7c.043.965.053,1.254.053,3.7s-.01,2.733-.053,3.7a5.118,5.118,0,0,1-.312,1.7,2.838,2.838,0,0,1-.677,1.053,2.806,2.806,0,0,1-1.04.684,4.953,4.953,0,0,1-1.679.315c-.953.044-1.239.053-3.653.053s-2.7-.009-3.654-.053a4.949,4.949,0,0,1-1.679-.315,2.806,2.806,0,0,1-1.04-.684,2.838,2.838,0,0,1-.677-1.053,5.117,5.117,0,0,1-.312-1.7c-.043-.965-.052-1.254-.052-3.7s.009-2.733.052-3.7a5.117,5.117,0,0,1,.312-1.7,2.841,2.841,0,0,1,.677-1.052,2.8,2.8,0,0,1,1.04-.685,4.935,4.935,0,0,1,1.679-.315c.953-.044,1.239-.053,3.654-.053m0-1.649c-2.455,0-2.763.011-3.728.055a6.551,6.551,0,0,0-2.195.426,4.422,4.422,0,0,0-1.6,1.055,4.494,4.494,0,0,0-1.042,1.621,6.779,6.779,0,0,0-.421,2.222c-.044.976-.054,1.288-.054,3.774s.01,2.8.054,3.774a6.775,6.775,0,0,0,.421,2.222A4.488,4.488,0,0,0,58.324,18.1a4.424,4.424,0,0,0,1.6,1.056,6.57,6.57,0,0,0,2.195.425c.964.044,1.273.055,3.728.055s2.763-.011,3.728-.055a6.57,6.57,0,0,0,2.195-.425,4.424,4.424,0,0,0,1.6-1.056,4.5,4.5,0,0,0,1.043-1.621,6.8,6.8,0,0,0,.42-2.222c.044-.976.054-1.288.054-3.774s-.01-2.8-.054-3.774a6.8,6.8,0,0,0-.42-2.222,4.505,4.505,0,0,0-1.043-1.621,4.422,4.422,0,0,0-1.6-1.055,6.551,6.551,0,0,0-2.195-.426c-.964-.044-1.273-.055-3.728-.055" transform="translate(7380.224 7240.123)" fill="#0b0d39"/>
    <path id="Path_222" data-name="Path 222" d="M67.939,7.657a4.92,4.92,0,1,0,4.807,4.918,4.864,4.864,0,0,0-4.807-4.918m0,8.111a3.193,3.193,0,1,1,3.12-3.192,3.157,3.157,0,0,1-3.12,3.192" transform="translate(7378.133 7238.032)" fill="#0b0d39"/>
    <path id="Path_223" data-name="Path 223" d="M77.278,6.877a1.045,1.045,0,1,1-1.044-1.044,1.045,1.045,0,0,1,1.044,1.044" transform="translate(7374.689 7238.811)" fill="#0b0d39"/>
  </g>
</svg>
