<svg xmlns="http://www.w3.org/2000/svg" width="188.462" height="43.064" viewBox="0 0 188.462 43.064">
  <g id="Group_1" data-name="Group 1" transform="translate(-320 470)">
    <path id="Path_1" data-name="Path 1" d="M653.062,120.125c.559-4.746,8.214-5.285,10.233-1.318,1.407-2.52,4.873-3.26,7.432-2.151.395.171,1.845,1.132,1.776,1.567l-.984,1.527-.875-1.258c-1.511-1.34-4.642-1.242-5.835.451a6.339,6.339,0,0,0-.824,2.435v7.578h-1.632v-8.2a5.889,5.889,0,0,0-1.068-2.191,4.378,4.378,0,0,0-5.522,0A5.029,5.029,0,0,0,654.694,121v7.954h-1.632Z" transform="translate(-251.068 -571.572)" fill="#0b0d39"/>
    <path id="Path_2" data-name="Path 2" d="M7.926,200.361a57.977,57.977,0,0,1,9.282-.873c.091.08-.353.786-.563.752a63.149,63.149,0,0,0-8.35.626A21.209,21.209,0,0,0,42.509,203.5l1.065-1.5c-1.4-.049-2.813.062-4.211,0-4.764-.2-9.546-1-14.308-1.382-2.2-.177-4.4-.213-6.591-.378a1.46,1.46,0,0,1,.375-.564,15.256,15.256,0,0,1,2.706-.067c5.735.181,11.467,1.253,17.2,1.632a51.2,51.2,0,0,0,5.248.1c.347-.1,1.525-2.532,1.741-3.023a21.6,21.6,0,0,0,1.575-5.567c.022-.211.183-.178.348-.154s-.19,1.6-.227,1.778a22.55,22.55,0,0,1-1.7,4.947c-.148.312-1.159,1.862-1.026,2.044,1.262-.2,2.535-.27,3.789-.54,1.21-.26,2.3-.782,3.492-.962-.071.23-.35.3-.543.4a20.275,20.275,0,0,1-7.159,1.626c-7.921,11.76-25.3,12.891-34.481,1.919-.749-.9-1.321-1.925-2.1-2.8-1.034.175-2.063.386-3.081.644-1.252.317-2.879,1.057-4.018,1.255a2.139,2.139,0,0,1-.6-.039c-.047-.242.112-.3.287-.4a15.652,15.652,0,0,1,2.127-.759,34.11,34.11,0,0,1,4.992-1.22,24.823,24.823,0,0,1-2.51-7.89c.514-.5.642,1.445.686,1.632a24.823,24.823,0,0,0,2.335,6.131" transform="translate(320 -638.345)" fill="#0b0d39"/>
    <path id="Path_3" data-name="Path 3" d="M886.154,128.811c-.225.363-6.149.462-6.949.392-1.834-.162-4.111-1.059-4.429-3.1-.881-5.647,6.174-4.929,9.764-4.542.4-4.423-5.307-4.926-8.1-3.02-1.621-1.759,1.651-2.289,2.89-2.365,3.342-.207,6.508.82,6.84,4.573.227,2.568-.151,5.459-.016,8.06m-1.615-5.87c-2.65-.355-9.074-1.441-8.105,3.138.274,1.3,1.85,1.784,3.016,1.877a22.771,22.771,0,0,0,5.09-.255Z" transform="translate(-444.879 -571.569)" fill="#0b0d39"/>
    <path id="Path_4" data-name="Path 4" d="M994.7,93.522l-1.091,1.756c-4.97.446-9.393-2.28-10.173-7.364-.972-6.333,3.661-11.224,10.057-10.66,1.465.129,6.135,1.088,3.891,3.232-4.263-3.4-10.835-1.9-12.037,3.766-1.31,6.173,3.189,10.7,9.354,9.271" transform="translate(-539.85 -537.515)" fill="#0b0d39"/>
    <path id="Path_5" data-name="Path 5" d="M535.012,119.158c.26-.075,1.052-.119,1.149.179.175,2.359-.172,4.918.013,7.252a3.74,3.74,0,0,0,3.7,3.822c6.546.4,4.292-6.691,4.74-10.815.159-.554,1.112-.6,1.551-.348l.04,8.072c-.644,6.159-11.062,6.015-11.66.014-.237-2.376.179-5.105-.008-7.521a.747.747,0,0,1,.472-.656" transform="translate(-147.367 -574.148)" fill="#0b0d39"/>
    <path id="Path_6" data-name="Path 6" d="M434.82,80.609v15.47l.188.188h9.6v1.5H433.25l-.188-.188V81.3c0-.791,1.16-.953,1.758-.689" transform="translate(-58.689 -540.385)" fill="#0b0d39"/>
    <path id="Path_7" data-name="Path 7" d="M1361.28,128.47c-3.874,1.8-9.367,1.129-10.485-3.629-1.4-5.961,3.231-9.743,8.934-8.162,1.106.307,2.249.952,1.225,2.14-4.121-2.471-8.988-.88-8.718,4.46.228,4.523,4.782,5.819,8.356,3.953Z" transform="translate(-860.978 -571.714)" fill="#0b0d39"/>
    <path id="Path_8" data-name="Path 8" d="M75.131,102.778c2.95-2.641,4.2-6.505,5.456-10.15.53-1.534,1.079-3.194,1.512-4.755.737-2.657,2.261-7.288-1.647-8-4.515-.825-9.607,1.672-11.283,6-2.166,5.6,1.924,10.044,7.468,10.27-.011.645-1.324.294-1.783.213-5.866-1.038-8.669-6.744-5.689-11.991,2.2-3.879,6.577-5.6,10.93-5.263,4.385.344,3.824,4.4,3.062,7.573C82.1,91.065,79.321,99.894,75.639,102.6c-.171.125-.262.233-.508.181" transform="translate(260.571 -539.132)" fill="#0b0d39"/>
    <path id="Path_9" data-name="Path 9" d="M205.764,82.014c-.285-.288,1.1-1.078,1.314-1.255,1.214-1,3.75-3.528,2.269-5.138-1.444-1.57-5.433-.264-7.058.61-4.666,2.511-9.416,9.908-7.451,15.243,2.784,7.562,13.825.165,17.456-3.007a14.141,14.141,0,0,1,1.067-1.065c.149-.064.249.037.186.185-.056.131-1.282,1.3-1.5,1.507-3.4,3.112-11.591,8.6-16.007,5.069-3.2-2.562-2.427-7.537-.966-10.854,1.892-4.3,6.37-8.672,11.261-9.058,5.212-.411,5.011,3.547,1.82,6.325-.269.235-2.146,1.682-2.386,1.438" transform="translate(150.529 -534.902)" fill="#0b0d39"/>
    <path id="Path_10" data-name="Path 10" d="M1197.264,129.211l-1.577-.117c.032-2.406-.234-5.067-.053-7.46a5.727,5.727,0,0,1,1.257-3.38c2.141-2.466,7.54-2.469,9.415.371l-1,1.442c-.818-2.679-5.373-2.932-7.032-1.064a5.6,5.6,0,0,0-1,2.254Z" transform="translate(-725.462 -571.826)" fill="#0b0d39"/>
    <path id="Path_11" data-name="Path 11" d="M1493.062,66.006c.146-.513,1-.2,1,0V91.935c0,.382-1,.382-1,0Z" transform="translate(-985.604 -527.474)" fill="#0b0d39"/>
    <path id="Path_12" data-name="Path 12" d="M81.86,18.866l-.378-.084a21.408,21.408,0,0,0-8.494-14.3C59.887-5.1,41.531,3.051,39.414,18.858c-.216,0-.382.128-.367-.178a18.082,18.082,0,0,1,.665-3.1A21.578,21.578,0,0,1,81.86,18.866" transform="translate(285.857 -470)" fill="#0b0d39"/>
    <path id="Path_13" data-name="Path 13" d="M841.062,119.7c.14-.5,1.137-.54,1.559-.327l.073,11.977c-.105.57-1.173.224-1.632.313Z" transform="translate(-415.464 -574.274)" fill="#0b0d39"/>
    <path id="Path_14" data-name="Path 14" d="M1158.694,119.454V131.73h-1.632V119.892c0-.568,1.205-.695,1.632-.438" transform="translate(-691.789 -574.345)" fill="#0b0d39"/>
    <path id="Path_15" data-name="Path 15" d="M1317.569,119.479v12.276h-1.507V119.792c0-.429,1.167-.558,1.507-.313" transform="translate(-830.827 -574.37)" fill="#0b0d39"/>
    <path id="Path_16" data-name="Path 16" d="M1118.062,155.294v-6.7a15.52,15.52,0,0,1,1.632-2.317v8.831c-.4.376-1.112.116-1.632.188" transform="translate(-657.686 -597.91)" fill="#0b0d39"/>
    <path id="Path_17" data-name="Path 17" d="M1277.239,156.161c-.355-.068-1.487.183-1.615-.205.112-1.963-.208-4.2-.025-6.128.081-.858,1.164-1.71,1.391-2.559.126-.037.25.532.25.563Z" transform="translate(-795.393 -598.776)" fill="#0b0d39"/>
    <path id="Path_18" data-name="Path 18" d="M1118.062,79.284v-8.2c0-.51,1.357-.828,1.612-.23-.1,1.839.2,3.943.028,5.75-.075.788-1.14,2.027-1.64,2.685" transform="translate(-657.686 -531.671)" fill="#0b0d39"/>
    <path id="Path_19" data-name="Path 19" d="M803.569,156.166h-1.507v-6.827l1.507-2.067Z" transform="translate(-381.361 -598.782)" fill="#0b0d39"/>
    <path id="Path_20" data-name="Path 20" d="M838.869,74.532a1.224,1.224,0,1,1,.2,2.44,1.224,1.224,0,0,1-.2-2.44" transform="translate(-412.673 -535.161)" fill="#0b0d39"/>
    <path id="Path_21" data-name="Path 21" d="M1155.214,74.484a1.235,1.235,0,0,1,.7,2.332,1.22,1.22,0,1,1-.7-2.332" transform="translate(-689.344 -535.116)" fill="#0b0d39"/>
    <path id="Path_22" data-name="Path 22" d="M1313.736,74.541c1.5-.2,1.664,2.079.568,2.33a1.2,1.2,0,1,1-.568-2.33" transform="translate(-827.902 -535.172)" fill="#0b0d39"/>
    <path id="Path_23" data-name="Path 23" d="M707.954,261.9l-.515-.072-.114-1.554-.815,1.25-.753-1.251-.2,1.615-.487.015c.194-1.671-.047-3.921,1.443-1.129.452-.389.414-1.507,1.2-1.2Z" transform="translate(-296.544 -696.88)" fill="#0b0d39"/>
    <path id="Path_24" data-name="Path 24" d="M986.051,259a1.308,1.308,0,1,1,.443,2.577,1.308,1.308,0,0,1-.443-2.577m.125.369c-.942.179-.725,1.863.2,1.827,1.147-.045,1-2.055-.2-1.827" transform="translate(-541.401 -696.456)" fill="#0b0d39"/>
    <path id="Path_25" data-name="Path 25" d="M665.2,258.974c.049.514-.2,2,.439,2.13.619.125.763.016.818-.563.047-.5-.266-1.762.443-1.446a6.288,6.288,0,0,1,.051,1.688,1.143,1.143,0,0,1-2.241-.255c-.071-.5-.221-1.654.49-1.554" transform="translate(-261.198 -696.454)" fill="#0b0d39"/>
    <path id="Path_26" data-name="Path 26" d="M817.551,261.649l-.484-.017-.16-.467-.167-.024a7.437,7.437,0,0,0-.99.028c-.255.087-.246.63-.71.481a1.488,1.488,0,0,1,.154-.659c1.173-3.282,1.6-1.564,2.356.659m-1.131-1.878c-.247-.253-.59.818-.5,1h.753Z" transform="translate(-392.707 -696.625)" fill="#0b0d39"/>
    <path id="Path_27" data-name="Path 27" d="M777.062,259.378l.255-.133,1.376,1.573.127-1.567c.069-.124.251.112.251.127v2.317c-.826.141-.942-1.275-1.631-1.628l0,1.629h-.376Z" transform="translate(-359.499 -696.67)" fill="#0b0d39"/>
    <path id="Path_28" data-name="Path 28" d="M1129.062,259.865c.609.037,1.871-.277,1.761.684-.023.2-.245.312-.258.5,0,.054.675.246.263.886-.335.52-1.224.242-1.766.306Zm.583.261c-.394.123-.309.948.458.718.713-.214.082-.886-.458-.718m.786,1.128-.992-.012v.628l.992-.012a.652.652,0,0,0,0-.6" transform="translate(-667.305 -697.22)" fill="#0b0d39"/>
    <path id="Path_29" data-name="Path 29" d="M1027.441,260.006c.1.7-.376,2.164.683,2.123.909-.035.478-1.494.574-2.123h.5c0,.988.244,2.561-1.181,2.5-1.382-.06-1.054-1.519-1.078-2.5Z" transform="translate(-577.989 -697.362)" fill="#0b0d39"/>
    <path id="Path_30" data-name="Path 30" d="M1203.526,261.5l-.484-.017-.226-.49-1.281.024c.051.271-.309.68-.518.482a8.38,8.38,0,0,1,1.082-2.5c.618-.185,1.227,2.037,1.428,2.5m-.879-.877c.1-.092-.364-1.234-.5-1.126l-.377,1.126Z" transform="translate(-730.219 -696.471)" fill="#0b0d39"/>
    <path id="Path_31" data-name="Path 31" d="M1242.674,259.944h.5c-.051.9.319,2.277-.875,2.454-1.239.184-1.472-.9-1.391-1.9.033-.4.008-.617.508-.557.056.637-.308,2.119.691,2.12.148,0,.565-.215.565-.3Z" transform="translate(-765.097 -697.299)" fill="#0b0d39"/>
    <path id="Path_32" data-name="Path 32" d="M1166.062,260.1c.107-.345,1.418-.132,1.758-.187v.375l-1.258.073,0,.555c.269.034,1.122-.172,1.132.311l-1.132.063v.628h1.257v.375h-1.758Z" transform="translate(-699.659 -697.264)" fill="#0b0d39"/>
    <path id="Path_33" data-name="Path 33" d="M1068.062,259.772c1.308-.146,2.316.143,1.4,1.545l.482.833c-.811.186-.63-.853-1.316-.879-.393-.015-.109.687-.191.881h-.376Zm1.242.388-.745-.085-.12.825.762-.055Z" transform="translate(-613.964 -697.127)" fill="#0b0d39"/>
    <path id="Path_34" data-name="Path 34" d="M890.82,260.01c.073.647-1.149.265-1.256.375v.628c.134.137,1.316-.3,1.131.312l-1.131.063v.628h1.131v.375h-1.633v-2.38Z" transform="translate(-457.437 -697.365)" fill="#0b0d39"/>
    <path id="Path_35" data-name="Path 35" d="M33.218,162.65c.788.787-.38,2.006-1.232,1.291s.367-2.154,1.232-1.291" transform="translate(292.28 -611.995)" fill="#0b0d39"/>
    <path id="Path_36" data-name="Path 36" d="M373.627,162.651c.865-.863,2.075.583,1.231,1.292a.9.9,0,0,1-1.231-1.292" transform="translate(-6.501 -611.996)" fill="#0b0d39"/>
    <path id="Path_37" data-name="Path 37" d="M1084.067,201.408l1.5-2.254.577,1.378a4.623,4.623,0,0,1-2.081.875" transform="translate(-627.959 -644.15)" fill="#0b0d39"/>
    <path id="Path_38" data-name="Path 38" d="M948.461,260.881a3.652,3.652,0,0,1,.5-.94c.155-.1.613-.156.5.125-.258.654-1.217,1.165-.878,2.195h-.5c.215-1.008-.586-1.415-1-2.193.563-.757.974,1.09,1.376.814" transform="translate(-508.176 -697.235)" fill="#0b0d39"/>
    <path id="Path_39" data-name="Path 39" d="M1317.973,260.567c.077-.3.615-1.331,1.006-1,.127.107-.755,1.15-.821,1.372-.071.237-.02,1-.12,1.008-.591.078-.378-.531-.494-.885-.1-.3-1.105-1.2-.823-1.495.366-.38.909,1.238,1.253,1" transform="translate(-831.359 -696.92)" fill="#0b0d39"/>
    <path id="Path_40" data-name="Path 40" d="M853.192,259.054v.375h-.88v2h-.5v-2h-.754l0-.5c.049-.06.159.125.187.125Z" transform="translate(-424.204 -696.409)" fill="#0b0d39"/>
    <path id="Path_41" data-name="Path 41" d="M1282.192,260.01v.375h-.879v2h-.5v-2h-.754v-.375Z" transform="translate(-799.342 -697.365)" fill="#0b0d39"/>
    <path id="Path_42" data-name="Path 42" d="M598.816,261.522h-1.758v-.375h1.256V259.2l.19-.187.312.187Z" transform="translate(-202.095 -696.497)" fill="#0b0d39"/>
    <path id="Path_43" data-name="Path 43" d="M632.565,261.146h1.13v.375h-1.633V259.2l.312-.187.19.187Z" transform="translate(-232.705 -696.497)" fill="#0b0d39"/>
    <path id="Path_44" data-name="Path 44" d="M571.565,261.522h-.5V259.2l.19-.187.312.187Z" transform="translate(-179.363 -696.497)" fill="#0b0d39"/>
    <rect id="Rectangle_3" data-name="Rectangle 3" width="0.502" height="2.38" transform="translate(414.173 -437.355)" fill="#0b0d39"/>
  </g>
</svg>
