<svg id="Group_47752" data-name="Group 47752" xmlns="http://www.w3.org/2000/svg" width="37.848" height="37.848" viewBox="0 0 37.848 37.848">
  <g id="Group_39925" data-name="Group 39925">
    <rect id="Rectangle_17460" data-name="Rectangle 17460" width="37.848" height="37.848" rx="18.924" fill="#1e1e1e"/>
  </g>
  <g id="Group_39926" data-name="Group 39926" transform="translate(13.704 13.616)">
    <g id="next_6_" data-name="next (6)" transform="translate(0 0)">
      <g id="Group_37247" data-name="Group 37247" transform="translate(0)">
        <path id="Path_28684" data-name="Path 28684" d="M122.775,4.5l-4.4-4.391a.369.369,0,1,0-.521.523l4.141,4.13-4.141,4.13a.369.369,0,0,0,.521.523l4.4-4.391a.369.369,0,0,0,0-.523Z" transform="translate(-117.742 0)" fill="#fff" stroke="#fff" stroke-width="1"/>
      </g>
    </g>
    <g id="next_6_2" data-name="next (6)" transform="translate(6.813 0)">
      <g id="Group_37247-2" data-name="Group 37247" transform="translate(0)">
        <path id="Path_28684-2" data-name="Path 28684" d="M122.775,4.5l-4.4-4.391a.369.369,0,1,0-.521.523l4.141,4.13-4.141,4.13a.369.369,0,0,0,.521.523l4.4-4.391a.369.369,0,0,0,0-.523Z" transform="translate(-117.742 0)" fill="#fff" stroke="#fff" stroke-width="1"/>
      </g>
    </g>
  </g>
</svg>
