<svg xmlns="http://www.w3.org/2000/svg" xmlns:xlink="http://www.w3.org/1999/xlink" width="28.456" height="28.443" viewBox="0 0 28.456 28.443">
  <defs>
    <linearGradient id="linear-gradient" x1="0.5" x2="0.5" y2="1" gradientUnits="objectBoundingBox">
      <stop offset="0" stop-color="#3996bc"/>
      <stop offset="1" stop-color="#fff"/>
    </linearGradient>
  </defs>
  <path id="phone" d="M3.281,14.549a10.3,10.3,0,0,1-.767-4.22A3.4,3.4,0,0,1,3.606,8c.708-.679,1.417-1.417,2.125-2.1a1.994,1.994,0,0,1,3.01,0l1.712,1.712c.561.561,1.121,1.092,1.653,1.653a2.008,2.008,0,0,1,0,3.1c-.679.708-1.387,1.387-2.1,2.066a.453.453,0,0,0-.118.561,12.471,12.471,0,0,0,1.889,3.04,22.178,22.178,0,0,0,5.283,4.81c.443.266.915.472,1.387.708a.433.433,0,0,0,.59-.118c.679-.708,1.387-1.417,2.1-2.125a1.994,1.994,0,0,1,3.01,0c1.121,1.121,2.272,2.243,3.394,3.394a2.017,2.017,0,0,1,0,3.069c-.649.649-1.328,1.269-1.918,1.948a3.86,3.86,0,0,1-3.246,1.239,13.212,13.212,0,0,1-5.165-1.505,28.269,28.269,0,0,1-9.355-7.319,24.92,24.92,0,0,1-4.574-7.585Zm27.668.622A14.176,14.176,0,0,0,18.361,2.528a1.352,1.352,0,0,0-1.5,1.337v.026a1.346,1.346,0,0,0,1.21,1.337A11.5,11.5,0,0,1,28.272,15.42a1.347,1.347,0,0,0,1.351,1.21h0a1.339,1.339,0,0,0,1.326-1.459ZM16.856,8.96v.019A1.333,1.333,0,0,0,17.941,10.3,6.462,6.462,0,0,1,23.2,15.559a1.333,1.333,0,0,0,1.324,1.085h.012a1.342,1.342,0,0,0,1.329-1.564A9.213,9.213,0,0,0,18.415,7.63a1.342,1.342,0,0,0-1.558,1.33Z" transform="translate(-2.5 -2.521)" fill="url(#linear-gradient)"/>
</svg>
