<svg xmlns="http://www.w3.org/2000/svg" xmlns:xlink="http://www.w3.org/1999/xlink" width="83.358" height="83.386" viewBox="0 0 83.358 83.386">
  <defs>
    <linearGradient id="linear-gradient" x1="0.5" x2="0.5" y2="1" gradientUnits="objectBoundingBox">
      <stop offset="0" stop-color="#3996bc"/>
      <stop offset="1" stop-color="#fff"/>
    </linearGradient>
  </defs>
  <path id="plane_1_" data-name="plane (1)" d="M85.472,27.654c3.986-4.123,8.659-12.589,3.843-17.581a7.008,7.008,0,0,0-6.091-1.988,20.631,20.631,0,0,0-11.486,5.832l-9.693,9.693-5.8-1.263c2.5-3.834-2.674-8.121-5.973-4.872l-2.931,2.931-6.876-1.5a3.9,3.9,0,1,0-5-5.956l-4,4-14.233-3.1a3.349,3.349,0,0,0-3.089.907l-2.865,2.865a3.377,3.377,0,0,0,.751,5.315L45.455,41.4,28.535,59.915l-17.184.914-2.662,2.66a2.389,2.389,0,0,0,.834,3.9L25.79,73.6,32,89.866a2.388,2.388,0,0,0,3.9.83l2.658-2.658.914-17.186,18.513-16.92L76.439,87.345a3.377,3.377,0,0,0,5.315.752c1.6-1.849,4.385-3.344,3.774-5.952L82.433,67.926l4-4a3.849,3.849,0,0,0,1.134-2.74,3.929,3.929,0,0,0-7.094-2.259l-1.5-6.877,2.933-2.933c3.245-3.313-.992-8.405-4.87-5.964l-1.265-5.812Z" transform="translate(-8.004 -7.999)" fill="url(#linear-gradient)"/>
</svg>
