<svg xmlns="http://www.w3.org/2000/svg" width="37.848" height="37.848" viewBox="0 0 37.848 37.848">
  <g id="Group_47751" data-name="Group 47751" transform="translate(0 -11.447)">
    <g id="Group_39925" data-name="Group 39925" transform="translate(0 11.447)">
      <rect id="Rectangle_17460" data-name="Rectangle 17460" width="37.848" height="37.848" rx="18.924" fill="#e6e7e2"/>
    </g>
    <g id="Group_39926" data-name="Group 39926" transform="translate(12.19 25.063)">
      <g id="next_6_" data-name="next (6)" transform="translate(6.813 0)">
        <g id="Group_37247" data-name="Group 37247" transform="translate(0)">
          <path id="Path_28684" data-name="Path 28684" d="M117.851,4.5l4.4-4.391a.369.369,0,0,1,.521.523l-4.141,4.13,4.141,4.13a.369.369,0,0,1-.521.523l-4.4-4.391a.369.369,0,0,1,0-.523Z" transform="translate(-117.742 0)" fill="#fff" stroke="#fff" stroke-width="1"/>
        </g>
      </g>
      <g id="next_6_2" data-name="next (6)" transform="translate(0 0)">
        <g id="Group_37247-2" data-name="Group 37247" transform="translate(0)">
          <path id="Path_28684-2" data-name="Path 28684" d="M117.851,4.5l4.4-4.391a.369.369,0,0,1,.521.523l-4.141,4.13,4.141,4.13a.369.369,0,0,1-.521.523l-4.4-4.391a.369.369,0,0,1,0-.523Z" transform="translate(-117.742 0)" fill="#fff" stroke="#fff" stroke-width="1"/>
        </g>
      </g>
    </g>
  </g>
</svg>
