<svg xmlns="http://www.w3.org/2000/svg" width="18.774" height="17.52" viewBox="0 0 18.774 17.52">
  <path id="Path_227" data-name="Path 227" d="M301.326,14.614v0s-.009,0-.017-.013h0a2.338,2.338,0,0,0-.6-.216s-.009,0-.009,0a5.115,5.115,0,0,1-2.446-1.782,5.627,5.627,0,0,1-.837-1.462v-.009a.709.709,0,0,1,.03-.626,0,0,0,0,0,0,0,1.751,1.751,0,0,1,.841-.535h0a3.271,3.271,0,0,0,1.139-.586s0,0,.009,0a.673.673,0,0,0,.163-.211.351.351,0,0,0,.026-.078.42.42,0,0,0-.021-.3v0a.921.921,0,0,0-.4-.38h0a.827.827,0,0,0-.681-.06h0a4.514,4.514,0,0,1-.6.177.018.018,0,0,0-.013,0,1.4,1.4,0,0,1-.685-.017c0-.026,0-.082-.013-.151h0c-.017-.414.021-.842.025-1.286v0A11.786,11.786,0,0,0,297.189,5V4.989a4.618,4.618,0,0,0-1.933-2.865,4.861,4.861,0,0,0-2.364-.841c-.289-.026-.569-.035-.85-.035a5.294,5.294,0,0,0-3.232,1.027,5.213,5.213,0,0,0-1.575,2.053v0a5.822,5.822,0,0,0-.254,2.506,11.737,11.737,0,0,1,.039,1.648.138.138,0,0,1-.009.034A2.244,2.244,0,0,1,286.2,8.5h0a5.972,5.972,0,0,1-.621-.173.018.018,0,0,1-.013,0,.741.741,0,0,0-.6.138s-.009,0-.009,0-.009,0-.009.008a.619.619,0,0,0-.332.5.191.191,0,0,0,0,.048s0,0,0,0a.576.576,0,0,0,.207.336c.086.074.164.121.212.16,0,0,.008,0,.013.009a6.073,6.073,0,0,0,1.273.552.918.918,0,0,1,.57.544,1.559,1.559,0,0,1-.225.975v0a6,6,0,0,1-1.932,2.213,4.643,4.643,0,0,1-1.419.647.081.081,0,0,0-.022.009.8.8,0,0,0-.5.293c-.009.017-.017.035-.026.056a.433.433,0,0,0,.082.4.658.658,0,0,0,.216.168s.009,0,.013,0a4.951,4.951,0,0,0,1.311.457,0,0,0,0,1,0,0,4.565,4.565,0,0,1,.819.2c.009.017.035.1.086.224.078.233.112.5.2.794a.243.243,0,0,0,.177.159.465.465,0,0,0,.315-.025h.026a5.118,5.118,0,0,1,2.071-.074,8.217,8.217,0,0,1,1.945,1.052v0a3.19,3.19,0,0,0,1.553.569h0a10.992,10.992,0,0,0,1.316-.03h.009a2.4,2.4,0,0,0,1.035-.353.021.021,0,0,1,.013-.009c.7-.4,1.325-.88,2.01-1.182h0a3.362,3.362,0,0,1,.807-.094h.009a10.616,10.616,0,0,1,1.7.086.129.129,0,0,0,.056,0,.32.32,0,0,0,.194-.108.259.259,0,0,0,.06-.121c.017-.056.03-.082,0-.034a.23.23,0,0,0,.021-.048,2.327,2.327,0,0,1,.328-.837.5.5,0,0,1,.349-.108h.03a6.086,6.086,0,0,0,1.35-.38.026.026,0,0,1,.017,0,1.186,1.186,0,0,0,.548-.367v0a.386.386,0,0,0-.117-.552" transform="translate(-282.74 -1.249)" fill="#0b0d39" fill-rule="evenodd"/>
</svg>
