<svg id="Group_47916" data-name="Group 47916" xmlns="http://www.w3.org/2000/svg" xmlns:xlink="http://www.w3.org/1999/xlink" width="528.894" height="133.329" viewBox="0 0 528.894 133.329">
  <defs>
    <clipPath id="clip-path">
      <rect id="Rectangle_17541" data-name="Rectangle 17541" width="528.894" height="133.329" fill="#0b0d39"/>
    </clipPath>
  </defs>
  <g id="Group_47915" data-name="Group 47915" clip-path="url(#clip-path)">
    <path id="Path_31428" data-name="Path 31428" d="M159.494,38.235,135.633,77.789l.312.951c4.6-4.679,8.073-11.385,15.829-9.337,14.6,3.855-5.282,23.894-6.838,30.512-1.681,7.144,3.617,5.638,7.395,2.229,11.034-9.958,13.377-24.387,28.209-31.039,4.67-2.095,13.975-4.5,15.089,2.494l3.648-4.394,8.6-.1-18.412,30.18c-1.157,14.213,11.882-1.625,14.809-5.809,5.085-7.27,8.979-16.567,13.917-24.065l9.039-.307-5.154,9.638c5.6-4.273,10.443-13.792,18.654-7.99,3.144,2.221,3.462,4.668,2.45,8.123-1.762,6.016-12.816,19.352-12.084,23.942.333,2.088,1.946,2.612,3.9,2.013,3.147-.966,10.03-9.424,12.114-12.387L279.154,38.87l9.362-.629L262.721,81c-.145,1.015-.061,1.082.946.95,8.824-1.161,16.884-14.777,23.748-12.724,6.458,1.93,1.848,18.13-5.345,16.286-5.665-5.448,5.146-8.056,6.2-11.9.376-1.369-.974-2.632-2.265-2.919-4.016-.892-11.784,9.8-16.193,10.627l6.379,3.6c6.826,6.679-5.8,12.875-2.834,18.9,2.3,4.677,11.043-5.66,12.91-7.707,3.4-3.733,6.031-8.419,9.984-11.583-1.1,3.687-4.6,7.55-7.106,10.594-4.362,5.288-12.59,16.361-20.14,10-7.3-6.152,2.519-14.182,2.111-18.314-.416-4.222-8.943-3.6-11.257-.94l-12.62,20.855-8.393.308,1.28-3.854c-3.607,3.492-8.192,5.615-12.58,1.936-10.177-8.532,10.566-23.457,9.271-33.031-.547-1.613-3.229-1.165-4.461-.765-3.047.988-14.949,15.432-17.259,18.8-3.609,5.267-6.2,11.309-9.789,16.6l-8.393.308.967-3.851c-5.4,6.975-15.843,4.026-15.17-5.147-7.055,8.434-23.585,15.819-22.579-1.928-4.673,4.519-10.754,14.556-18.381,9.646-12.146-7.819,11.152-26.229,8.63-33.665-1.846-5.44-12.025,6.071-13.45,7.64C129.5,87.912,123.9,97.289,118.2,106.707l-8.379.323,40.639-68.794ZM193.527,72.47a4.119,4.119,0,0,0-2.682-.763c-5.953.383-16.339,12.995-19.365,18.017-1.981,3.289-8.9,15.806-.752,14.714,7.3-.978,19.312-18.953,22.231-25.455.8-1.785,2.222-4.864.569-6.513" transform="translate(-38.953 -13.561)" fill="#0b0d39"/>
    <path id="Path_31429" data-name="Path 31429" d="M3.777,92.835c3.2,8.24,12.79,10.512,20.9,9.57C48.051,99.688,70.352,56.2,83.245,38.617A129.675,129.675,0,0,1,111.508,10.2C79.386-.567,46.733-.987,23.794,26.943,15.3,37.282,1.159,61.636,15.715,72.251,33.572,85.274,66.745,51.271,62.841,33c-1.33-6.225-7.8-8.177-13.256-5.743.461,1.333,2.383.492,3.509,1.954,1.833,2.38.365,5.067-2.2,6.127L46.67,33.687C44.218,21.609,61.934,21.433,64.9,32.222,68.667,45.886,52.3,65.4,41.142,71.882,15.237,86.93-9.524,69.427,3.657,40.307,20.447,3.216,70.282-2.038,105.936,2.261c4.232.51,10.563,2.552,14.287,2.53,3.085-.017,6.9-2.206,9.99-2.948,8.718-2.1,26.978-3.31,34.644,1.488,9.8,6.131,3.139,13.923-5.574,15.911-15.015,3.427-30.387-3.954-44.528-7.774-20.166,17.478-28.946,43.911-45.839,64.3-12.631,15.249-35.539,34.33-56.9,27.167C6.413,101.061-2.476,93.062,1.892,86.772c4.338-6.248,12.667,6.083,1.886,6.063M125.7,5.392c.2,1.211,1.357,1.051,2.18,1.356,8.9,3.294,26.836,8.61,35.916,6.709,1.669-.349,4.172-1.427,4.344-3.352A3.207,3.207,0,0,0,167.28,8C161.311-1.245,135,2.127,125.7,5.392" transform="translate(0 0)" fill="#0b0d39"/>
    <path id="Path_31430" data-name="Path 31430" d="M616.134,5.4c-14.072-10.12-26.037,5.361-33.42,15.872-18.728,26.662-28.1,59.335-50.106,83.8-12.886,14.325-35.866,32.621-56.487,27.347-6.4-1.636-15.822-9.323-11.223-16.389,4.411-6.776,12.016,6,1.579,5.753,4.326,10.563,16.769,11.082,26.419,8.006,19-6.055,36.595-34.579,45.941-51.3a98.508,98.508,0,0,0,6.334-12.648c-11.146,12.027-23.6,29.966-39.115,36.557-6.923,2.943-17.625,3.341-17.64-6.658-.021-13.852,21.706-42.954,29.29-55.672,6.655-11.161,17.986-31.16-1.214-37.259-18.188-5.779-41.236,9.609-52.93,22.516-8.572,9.461-27.269,36.209-12.889,46.941,18.592,13.876,54.772-20.46,49.689-39.879-1.417-5.414-9.157-8.012-13.244-3.845,9.163-.287,2.588,11.331-2.234,5.772-5.936-6.844,11.329-15.7,16.964-4.051,6.076,12.568-10.271,33.2-20.336,39.956C456.638,86.9,424.583,71.947,441.85,40.336,454.534,17.114,485.637-2.21,512.589.271c11.238,1.034,21.17,8.088,21.03,20.24-.223,19.412-28.711,50.267-36.3,69.97-1.557,4.046-4.52,11.571,2.342,11.394,15.446-.4,40.231-31.8,48.991-43.818C560.18,42.251,581.95,2.524,602.911.257c4.384-.474,11.649.236,13.223,5.146" transform="translate(-154.98 -0.02)" fill="#0b0d39"/>
    <path id="Path_31431" data-name="Path 31431" d="M689.51,86.038l-17.675,28.992c-3.239,7.907,1.76,8.827,7.055,3.816a145.315,145.315,0,0,0,14.124-16.785c3.4-4.83,6.021-10.794,9.389-15.718l9.041-.305c-4.734,9.471-12.241,18.481-16.881,27.855-1.145,2.313-3.957,8.441,1.016,8.15,4.953-.29,14.993-15.352,18.757-19.3.487-.512,1.545-1.984,2.264-.958-4.072,4.909-14.964,21.33-21.015,22.157-6.518.891-11.07-5.534-8.662-11.544-5.337,4.044-9.991,14.658-18.233,10.783-5.909-2.778-4.733-9.139-2.411-14-3.24,1.98-6.474,4.038-10.508,3.081-1.409-.333-2.434-2.081-3.867-1.726-5.065,5.465-13.466,16.238-22.116,12.835-7.609-2.992-2.994-15.074-.146-20.172,4.379-7.839,15.9-17.6,25.362-17.208,7.327.3,7.486,5.518,5.331,11.149-.987,2.579-6.788,10.406-6.861,11.187-.2,2.183,3.844,2.9,5.371,2.807,8.927-.529,17.281-18.13,21.625-24.789Zm-30.482,3.375c-3.866-4.468-15.557,8.287-17.882,11.1-2.759,3.344-11.978,16.936-8.247,20.72,3.654,3.7,15.506-8.609,17.3-11.713,1.379-2.393-.532-4.619-.548-7.1-.03-4.764,3.932-11.727,9.544-9.633.974-.458.214-2.945-.163-3.382" transform="translate(-221.899 -30.494)" fill="#0b0d39"/>
    <path id="Path_31432" data-name="Path 31432" d="M799.733,38.218,787.366,56.427c-5.723,15.212-6.116,34.549-23.753,41.581l6.336-8.788c6.586-19.938,7.89-32.925,24.617-47.478.618-.538,4.717-3.973,5.166-3.524" transform="translate(-270.839 -13.541)" fill="#0b0d39"/>
    <path id="Path_31433" data-name="Path 31433" d="M757.325,133.147c4.6-.111,4.47,7.159.505,7.564-4.875.5-5.787-7.436-.505-7.564" transform="translate(-267.341 -47.224)" fill="#0b0d39"/>
  </g>
</svg>
