<svg id="Group_47612" data-name="Group 47612" xmlns="http://www.w3.org/2000/svg" xmlns:xlink="http://www.w3.org/1999/xlink" width="15.317" height="17.673" viewBox="0 0 15.317 17.673">
  <defs>
    <clipPath id="clip-path">
      <rect id="Rectangle_17400" data-name="Rectangle 17400" width="15.317" height="17.673" fill="#0b0d39"/>
    </clipPath>
  </defs>
  <g id="Group_47611" data-name="Group 47611" clip-path="url(#clip-path)">
    <path id="Path_247" data-name="Path 247" d="M13.41,3.78q-.179-.093-.348-.2a4.893,4.893,0,0,1-.894-.759A4.215,4.215,0,0,1,11.162.74h0a2.554,2.554,0,0,1-.04-.74H8.09V11.736c0,.158,0,.313-.007.467,0,.019,0,.037,0,.057a.127.127,0,0,1,0,.026v.007a2.576,2.576,0,0,1-1.3,2.045,2.53,2.53,0,0,1-1.256.331,2.577,2.577,0,0,1,0-5.154,2.536,2.536,0,0,1,.788.125l0-3.09A5.638,5.638,0,0,0,1.973,7.822a5.956,5.956,0,0,0-1.3,1.6A5.556,5.556,0,0,0,0,11.974,6.018,6.018,0,0,0,.33,13.988V14a5.933,5.933,0,0,0,.824,1.5,6.168,6.168,0,0,0,1.315,1.24v-.007l.007.007a5.681,5.681,0,0,0,3.1.933,5.488,5.488,0,0,0,2.3-.508,5.772,5.772,0,0,0,1.867-1.4,5.835,5.835,0,0,0,1.018-1.691,6.33,6.33,0,0,0,.366-1.934V5.909c.037.022.527.346.527.346A7.02,7.02,0,0,0,13.461,7a10.425,10.425,0,0,0,1.856.254V4.244A3.936,3.936,0,0,1,13.41,3.78" transform="translate(0)" fill="#0b0d39"/>
  </g>
</svg>
