<svg xmlns="http://www.w3.org/2000/svg" xmlns:xlink="http://www.w3.org/1999/xlink" width="34.6" height="34.607" viewBox="0 0 34.6 34.607">
  <defs>
    <linearGradient id="linear-gradient" x1="0.5" x2="0.5" y2="1" gradientUnits="objectBoundingBox">
      <stop offset="0" stop-color="#3996bc"/>
      <stop offset="1" stop-color="#fff"/>
    </linearGradient>
  </defs>
  <g id="Group_47686" data-name="Group 47686" transform="translate(0)">
    <path id="Path_228" data-name="Path 228" d="M262.241,17.753a16.99,16.99,0,0,0-33.948-.31c-.008.246-.015.493-.015.74a16.729,16.729,0,0,0,2.433,8.708l-3.062,9.042,9.407-2.991a17.006,17.006,0,0,0,25.192-14.758c0-.144,0-.286-.008-.43m-16.978,14.6a14.226,14.226,0,0,1-7.857-2.346l-5.486,1.75,1.781-5.264a14.025,14.025,0,0,1-2.72-8.31,13.1,13.1,0,0,1,.072-1.375,14.287,14.287,0,0,1,28.444.27c.032.366.048.732.048,1.105a14.242,14.242,0,0,1-14.282,14.17" transform="translate(-227.649 -1.324)" fill-rule="evenodd" fill="url(#linear-gradient)"/>
    <path id="Path_229" data-name="Path 229" d="M250.733,19.313c-.422-.206-2.466-1.209-2.848-1.343s-.66-.207-.938.206-1.081,1.343-1.321,1.615-.484.31-.906.1a11.239,11.239,0,0,1-3.348-2.051,12.321,12.321,0,0,1-2.314-2.854c-.238-.414-.024-.637.184-.843.19-.19.412-.485.628-.724.056-.072.1-.136.15-.2a4.575,4.575,0,0,0,.263-.492.747.747,0,0,0-.032-.724c-.1-.207-.939-2.242-1.289-3.07s-.692-.685-.938-.685-.517-.039-.8-.039a1.544,1.544,0,0,0-1.113.516,4.63,4.63,0,0,0-1.455,3.451,5.27,5.27,0,0,0,.214,1.407,9.414,9.414,0,0,0,1.487,2.864c.208.27,2.88,4.579,7.109,6.242,4.239,1.647,4.239,1.1,5,1.025a4.15,4.15,0,0,0,2.806-1.963,3.411,3.411,0,0,0,.247-1.964c-.1-.168-.383-.271-.8-.477" transform="translate(-225.334 0.95)" fill-rule="evenodd" fill="url(#linear-gradient)"/>
  </g>
</svg>
