<svg xmlns="http://www.w3.org/2000/svg" width="17.416" height="17.419" viewBox="0 0 17.416 17.419">
  <g id="Group_47610" data-name="Group 47610" transform="translate(-7551.405 -7241.449)">
    <path id="Path_228" data-name="Path 228" d="M245.061,9.593a8.552,8.552,0,0,0-17.088-.156c0,.124-.007.248-.007.372a8.42,8.42,0,0,0,1.224,4.383l-1.541,4.551,4.735-1.506a8.56,8.56,0,0,0,12.68-7.428c0-.072,0-.144,0-.216m-8.546,7.349a7.16,7.16,0,0,1-3.955-1.181l-2.762.881.9-2.65a7.059,7.059,0,0,1-1.369-4.183,6.6,6.6,0,0,1,.036-.692,7.192,7.192,0,0,1,14.317.136c.016.184.024.368.024.556a7.169,7.169,0,0,1-7.189,7.133" transform="translate(7323.756 7240.125)" fill="#0b0d39" fill-rule="evenodd"/>
    <path id="Path_229" data-name="Path 229" d="M242.751,13.8c-.212-.1-1.241-.609-1.433-.676s-.332-.1-.472.1-.544.676-.665.813-.244.156-.456.052a5.657,5.657,0,0,1-1.685-1.032,6.2,6.2,0,0,1-1.165-1.437c-.12-.208-.012-.321.092-.424s.208-.244.316-.364c.028-.036.052-.068.076-.1a2.3,2.3,0,0,0,.133-.248.376.376,0,0,0-.016-.364c-.052-.1-.473-1.129-.649-1.545s-.348-.345-.472-.345-.26-.019-.4-.019a.777.777,0,0,0-.56.26,2.331,2.331,0,0,0-.732,1.737,2.653,2.653,0,0,0,.108.708,4.739,4.739,0,0,0,.748,1.441A8.615,8.615,0,0,0,239.1,15.5c2.134.829,2.134.552,2.518.516a2.089,2.089,0,0,0,1.413-.988,1.717,1.717,0,0,0,.125-.989c-.052-.084-.193-.137-.4-.24" transform="translate(7321.438 7237.849)" fill="#0b0d39" fill-rule="evenodd"/>
  </g>
</svg>
