<svg xmlns="http://www.w3.org/2000/svg" width="25.412" height="17.904" viewBox="0 0 25.412 17.904">
  <g id="Group_47609" data-name="Group 47609" transform="translate(-7547.407 -7275.288)">
    <path id="Path_244" data-name="Path 244" d="M246.557,54.665a3.193,3.193,0,0,0-2.247-2.261c-1.982-.534-9.928-.534-9.928-.534s-7.946,0-9.928.534a3.2,3.2,0,0,0-2.247,2.261,35.959,35.959,0,0,0,0,12.312,3.192,3.192,0,0,0,2.247,2.261c1.982.535,9.928.535,9.928.535s7.947,0,9.928-.535a3.191,3.191,0,0,0,2.247-2.261,35.959,35.959,0,0,0,0-12.312" transform="translate(7325.73 7223.419)" fill="#0b0d39"/>
    <path id="Path_245" data-name="Path 245" d="M236.773,67.154V59.6l6.642,3.778Z" transform="translate(7320.74 7220.864)" fill="#fff"/>
  </g>
</svg>
